ffmpeg started on 2025-05-26 at 18:47:11
Report written to "D:\Convert\FFMetrics\reports\psnr_report-6.txt"
Log level: 32
Command line:
ffmpeg -hide_banner -nostdin -i "G:\\\xc0\xed\xe8\xec\xe5\\\xce\xed\xe3\xee\xe8\xed\xe3\xe8\\!_34_\xc2\xe5\xf1\xed\xe0_2024\\DreamCast\\\xc7\xe0\xe1\xe2\xe5\xed\xe8\xe5 \xe1\xfd\xf2\xf2\xe5\xf0\xe8\\[DC] Boukyaku Battery - 08_Telegram_HEVC.mkv" -i "G:\\\xc0\xed\xe8\xec\xe5\\\xce\xed\xe3\xee\xe8\xed\xe3\xe8\\!_34_\xc2\xe5\xf1\xed\xe0_2024\\DreamCast\\\xc7\xe0\xe1\xe2\xe5\xed\xe8\xe5 \xe1\xfd\xf2\xf2\xe5\xf0\xe8\\[DC] Boukyaku Battery - 08_Telegram.mp4" -lavfi "[0:v]settb=AVTB,setpts=PTS-STARTPTS,format=pix_fmts=yuv420p10,fps=24000/1001,scale=1920:1080:flags=bicubic[main];[1:v]settb=AVTB,setpts=PTS-STARTPTS,format=pix_fmts=yuv420p,fps=24000/1001,scale=1920:1080:flags=bicubic[ref];[main][ref]psnr=eof_action=endall:stats_file='D\\:/Convert/FFMetrics/logs/psnr_logfile-6.txt'" -f null -
Input #0, matroska,webm, from 'G:\Аниме\Онгоинги\!_34_Весна_2024\DreamCast\Забвение бэттери\[DC] Boukyaku Battery - 08_Telegram_HEVC.mkv':
  Metadata:
    COMPATIBLE_BRANDS: isomiso2avc1mp41
    MAJOR_BRAND     : isom
    MINOR_VERSION   : 512
    ENCODER         : Lavf61.7.100
  Duration: 00:24:01.75, start: -0.021000, bitrate: 1366 kb/s
  Stream #0:0: Video: hevc (Main 10), yuv420p10le(tv, bt709, progressive), 1920x1080 [SAR 1:1 DAR 16:9], 23.98 fps, 23.98 tbr, 1k tbn (default)
      Metadata:
        HANDLER_NAME    : VideoHandler
        VENDOR_ID       : [0][0][0][0]
        ENCODER         : Lavc61.19.100 libx265
        BPS             : 1169925
        DURATION        : 00:24:01.564708333
        NUMBER_OF_FRAMES: 34563
        NUMBER_OF_BYTES : 210815383
        _STATISTICS_WRITING_APP: mkvpropedit v66.0.0 ('Josie') 64-bit
        _STATISTICS_WRITING_DATE_UTC: 2025-05-26 11:30:43
        _STATISTICS_TAGS: BPS DURATION NUMBER_OF_FRAMES NUMBER_OF_BYTES
  Stream #0:1: Audio: aac (LC), 48000 Hz, stereo, fltp (default)
      Metadata:
        HANDLER_NAME    : SoundHandler
        VENDOR_ID       : [0][0][0][0]
        ENCODER         : Lavc61.19.100 aac
        BPS             : 192856
        DURATION        : 00:24:01.749000000
        NUMBER_OF_FRAMES: 67583
        NUMBER_OF_BYTES : 34756317
        _STATISTICS_WRITING_APP: mkvpropedit v66.0.0 ('Josie') 64-bit
        _STATISTICS_WRITING_DATE_UTC: 2025-05-26 11:30:43
        _STATISTICS_TAGS: BPS DURATION NUMBER_OF_FRAMES NUMBER_OF_BYTES
Input #1, mov,mp4,m4a,3gp,3g2,mj2, from 'G:\Аниме\Онгоинги\!_34_Весна_2024\DreamCast\Забвение бэттери\[DC] Boukyaku Battery - 08_Telegram.mp4':
  Metadata:
    major_brand     : isom
    minor_version   : 512
    compatible_brands: isomiso2avc1mp41
    encoder         : Lavf60.16.100
  Duration: 00:24:01.70, start: 0.000000, bitrate: 3917 kb/s
  Stream #1:0[0x1](und): Video: h264 (High) (avc1 / 0x31637661), yuv420p(tv, bt709, progressive), 1920x1080 [SAR 1:1 DAR 16:9], 3770 kb/s, 23.98 fps, 23.98 tbr, 24k tbn (default)
      Metadata:
        handler_name    : VideoHandler
        vendor_id       : [0][0][0][0]
        encoder         : Lavc60.31.102 h264_qsv
  Stream #1:1[0x2](und): Audio: aac (HE-AACv2) (mp4a / 0x6134706D), 48000 Hz, stereo, fltp, 144 kb/s (default)
      Metadata:
        handler_name    : SoundHandler
        vendor_id       : [0][0][0][0]
Stream mapping:
  Stream #0:0 (hevc) -> settb:default
  Stream #1:0 (h264) -> settb:default
  psnr:default -> Stream #0:0 (wrapped_avframe)
  Stream #0:1 -> #0:1 (aac (native) -> pcm_s16le (native))
Output #0, null, to 'pipe:':
  Metadata:
    COMPATIBLE_BRANDS: isomiso2avc1mp41
    MAJOR_BRAND     : isom
    MINOR_VERSION   : 512
    encoder         : Lavf61.7.100
  Stream #0:0: Video: wrapped_avframe, yuv420p10le(tv, bt709, progressive), 1920x1080 [SAR 1:1 DAR 16:9], q=2-31, 200 kb/s, 23.98 fps, 23.98 tbn
      Metadata:
        encoder         : Lavc61.19.100 wrapped_avframe
  Stream #0:1: Audio: pcm_s16le, 48000 Hz, stereo, s16, 1536 kb/s (default)
      Metadata:
        HANDLER_NAME    : SoundHandler
        VENDOR_ID       : [0][0][0][0]
        _STATISTICS_TAGS: BPS DURATION NUMBER_OF_FRAMES NUMBER_OF_BYTES
        BPS             : 192856
        DURATION        : 00:24:01.749000000
        NUMBER_OF_FRAMES: 67583
        NUMBER_OF_BYTES : 34756317
        _STATISTICS_WRITING_APP: mkvpropedit v66.0.0 ('Josie') 64-bit
        _STATISTICS_WRITING_DATE_UTC: 2025-05-26 11:30:43
        encoder         : Lavc61.19.100 pcm_s16le
frame=  187 fps=0.0 q=-0.0 size=N/A time=00:00:07.79 bitrate=N/A speed=15.2x    frame=  422 fps=407 q=-0.0 size=N/A time=00:00:17.60 bitrate=N/A speed=  17x    frame=  665 fps=430 q=-0.0 size=N/A time=00:00:27.73 bitrate=N/A speed=  18x    frame=  899 fps=435 q=-0.0 size=N/A time=00:00:37.49 bitrate=N/A speed=18.1x    frame= 1127 fps=438 q=-0.0 size=N/A time=00:00:47.00 bitrate=N/A speed=18.3x    frame= 1380 fps=445 q=-0.0 size=N/A time=00:00:57.55 bitrate=N/A speed=18.6x    frame= 1610 fps=447 q=-0.0 size=N/A time=00:01:07.15 bitrate=N/A speed=18.6x    frame= 1852 fps=449 q=-0.0 size=N/A time=00:01:17.24 bitrate=N/A speed=18.7x    frame= 2095 fps=452 q=-0.0 size=N/A time=00:01:27.37 bitrate=N/A speed=18.8x    frame= 2319 fps=449 q=-0.0 size=N/A time=00:01:36.72 bitrate=N/A speed=18.7x    frame= 2528 fps=446 q=-0.0 size=N/A time=00:01:45.43 bitrate=N/A speed=18.6x    frame= 2742 fps=443 q=-0.0 size=N/A time=00:01:54.36 bitrate=N/A speed=18.5x    frame= 2940 fps=439 q=-0.0 size=N/A time=00:02:02.62 bitrate=N/A speed=18.3x    frame= 3131 fps=434 q=-0.0 size=N/A time=00:02:10.58 bitrate=N/A speed=18.1x    frame= 3336 fps=432 q=-0.0 size=N/A time=00:02:19.13 bitrate=N/A speed=  18x    frame= 3532 fps=428 q=-0.0 size=N/A time=00:02:27.31 bitrate=N/A speed=17.9x    frame= 3733 fps=426 q=-0.0 size=N/A time=00:02:35.69 bitrate=N/A speed=17.8x    frame= 3976 fps=428 q=-0.0 size=N/A time=00:02:45.83 bitrate=N/A speed=17.9x    frame= 4201 fps=429 q=-0.0 size=N/A time=00:02:55.21 bitrate=N/A speed=17.9x    frame= 4445 fps=431 q=-0.0 size=N/A time=00:03:05.39 bitrate=N/A speed=  18x    frame= 4717 fps=436 q=-0.0 size=N/A time=00:03:16.73 bitrate=N/A speed=18.2x    frame= 4999 fps=441 q=-0.0 size=N/A time=00:03:28.49 bitrate=N/A speed=18.4x    frame= 5252 fps=443 q=-0.0 size=N/A time=00:03:39.05 bitrate=N/A speed=18.5x    frame= 5517 fps=446 q=-0.0 size=N/A time=00:03:50.10 bitrate=N/A speed=18.6x    frame= 5765 fps=447 q=-0.0 size=N/A time=00:04:00.44 bitrate=N/A speed=18.6x    frame= 6024 fps=450 q=-0.0 size=N/A time=00:04:11.25 bitrate=N/A speed=18.7x    frame= 6307 fps=453 q=-0.0 size=N/A time=00:04:23.05 bitrate=N/A speed=18.9x    frame= 6559 fps=454 q=-0.0 size=N/A time=00:04:33.56 bitrate=N/A speed=  19x    frame= 6815 fps=456 q=-0.0 size=N/A time=00:04:44.24 bitrate=N/A speed=  19x    frame= 7080 fps=458 q=-0.0 size=N/A time=00:04:55.29 bitrate=N/A speed=19.1x    frame= 7331 fps=459 q=-0.0 size=N/A time=00:05:05.76 bitrate=N/A speed=19.1x    frame= 7573 fps=459 q=-0.0 size=N/A time=00:05:15.89 bitrate=N/A speed=19.1x    frame= 7829 fps=460 q=-0.0 size=N/A time=00:05:26.53 bitrate=N/A speed=19.2x    frame= 8110 fps=463 q=-0.0 size=N/A time=00:05:38.25 bitrate=N/A speed=19.3x    frame= 8366 fps=463 q=-0.0 size=N/A time=00:05:48.93 bitrate=N/A speed=19.3x    frame= 8600 fps=463 q=-0.0 size=N/A time=00:05:58.69 bitrate=N/A speed=19.3x    frame= 8821 fps=462 q=-0.0 size=N/A time=00:06:07.95 bitrate=N/A speed=19.3x    frame= 9063 fps=463 q=-0.0 size=N/A time=00:06:18.00 bitrate=N/A speed=19.3x    frame= 9314 fps=463 q=-0.0 size=N/A time=00:06:28.47 bitrate=N/A speed=19.3x    frame= 9557 fps=463 q=-0.0 size=N/A time=00:06:38.60 bitrate=N/A speed=19.3x    frame= 9815 fps=464 q=-0.0 size=N/A time=00:06:49.36 bitrate=N/A speed=19.4x    frame=10054 fps=464 q=-0.0 size=N/A time=00:06:59.33 bitrate=N/A speed=19.4x    frame=10304 fps=465 q=-0.0 size=N/A time=00:07:09.76 bitrate=N/A speed=19.4x    frame=10568 fps=466 q=-0.0 size=N/A time=00:07:20.77 bitrate=N/A speed=19.4x    frame=10807 fps=466 q=-0.0 size=N/A time=00:07:30.74 bitrate=N/A speed=19.4x    frame=11052 fps=466 q=-0.0 size=N/A time=00:07:40.96 bitrate=N/A speed=19.4x    frame=11334 fps=468 q=-0.0 size=N/A time=00:07:52.72 bitrate=N/A speed=19.5x    frame=11568 fps=467 q=-0.0 size=N/A time=00:08:02.48 bitrate=N/A speed=19.5x    frame=11751 fps=465 q=-0.0 size=N/A time=00:08:10.11 bitrate=N/A speed=19.4x    frame=11983 fps=465 q=-0.0 size=N/A time=00:08:19.79 bitrate=N/A speed=19.4x    frame=12235 fps=465 q=-0.0 size=N/A time=00:08:30.30 bitrate=N/A speed=19.4x    frame=12482 fps=465 q=-0.0 size=N/A time=00:08:40.60 bitrate=N/A speed=19.4x    frame=12703 fps=465 q=-0.0 size=N/A time=00:08:49.82 bitrate=N/A speed=19.4x    frame=12951 fps=465 q=-0.0 size=N/A time=00:09:00.16 bitrate=N/A speed=19.4x    frame=13205 fps=466 q=-0.0 size=N/A time=00:09:10.75 bitrate=N/A speed=19.4x    frame=13472 fps=467 q=-0.0 size=N/A time=00:09:21.89 bitrate=N/A speed=19.5x    frame=13732 fps=467 q=-0.0 size=N/A time=00:09:32.73 bitrate=N/A speed=19.5x    frame=13996 fps=468 q=-0.0 size=N/A time=00:09:43.74 bitrate=N/A speed=19.5x    frame=14261 fps=468 q=-0.0 size=N/A time=00:09:54.80 bitrate=N/A speed=19.5x    frame=14512 fps=469 q=-0.0 size=N/A time=00:10:05.27 bitrate=N/A speed=19.6x    frame=14762 fps=469 q=-0.0 size=N/A time=00:10:15.69 bitrate=N/A speed=19.6x    frame=14975 fps=468 q=-0.0 size=N/A time=00:10:24.58 bitrate=N/A speed=19.5x    frame=15238 fps=469 q=-0.0 size=N/A time=00:10:35.55 bitrate=N/A speed=19.6x    frame=15466 fps=468 q=-0.0 size=N/A time=00:10:45.06 bitrate=N/A speed=19.5x    frame=15701 fps=468 q=-0.0 size=N/A time=00:10:54.86 bitrate=N/A speed=19.5x    frame=15900 fps=467 q=-0.0 size=N/A time=00:11:03.16 bitrate=N/A speed=19.5x    frame=16150 fps=467 q=-0.0 size=N/A time=00:11:13.58 bitrate=N/A speed=19.5x    frame=16355 fps=466 q=-0.0 size=N/A time=00:11:22.13 bitrate=N/A speed=19.4x    frame=16585 fps=466 q=-0.0 size=N/A time=00:11:31.73 bitrate=N/A speed=19.4x    frame=16813 fps=466 q=-0.0 size=N/A time=00:11:41.24 bitrate=N/A speed=19.4x    frame=17077 fps=466 q=-0.0 size=N/A time=00:11:52.25 bitrate=N/A speed=19.4x    frame=17345 fps=467 q=-0.0 size=N/A time=00:12:03.43 bitrate=N/A speed=19.5x    frame=17555 fps=466 q=-0.0 size=N/A time=00:12:12.18 bitrate=N/A speed=19.4x    frame=17802 fps=466 q=-0.0 size=N/A time=00:12:22.49 bitrate=N/A speed=19.4x    frame=18020 fps=466 q=-0.0 size=N/A time=00:12:31.58 bitrate=N/A speed=19.4x    frame=18271 fps=466 q=-0.0 size=N/A time=00:12:42.05 bitrate=N/A speed=19.4x    frame=18493 fps=466 q=-0.0 size=N/A time=00:12:51.31 bitrate=N/A speed=19.4x    frame=18751 fps=466 q=-0.0 size=N/A time=00:13:02.07 bitrate=N/A speed=19.4x    frame=19010 fps=466 q=-0.0 size=N/A time=00:13:12.87 bitrate=N/A speed=19.5x    frame=19246 fps=466 q=-0.0 size=N/A time=00:13:22.71 bitrate=N/A speed=19.5x    frame=19486 fps=466 q=-0.0 size=N/A time=00:13:32.72 bitrate=N/A speed=19.5x    frame=19744 fps=467 q=-0.0 size=N/A time=00:13:43.48 bitrate=N/A speed=19.5x    frame=20004 fps=467 q=-0.0 size=N/A time=00:13:54.33 bitrate=N/A speed=19.5x    frame=20242 fps=467 q=-0.0 size=N/A time=00:14:04.26 bitrate=N/A speed=19.5x    frame=20520 fps=468 q=-0.0 size=N/A time=00:14:15.85 bitrate=N/A speed=19.5x    frame=20749 fps=468 q=-0.0 size=N/A time=00:14:25.40 bitrate=N/A speed=19.5x    frame=21016 fps=468 q=-0.0 size=N/A time=00:14:36.54 bitrate=N/A speed=19.5x    frame=21276 fps=469 q=-0.0 size=N/A time=00:14:47.38 bitrate=N/A speed=19.5x    frame=21524 fps=469 q=-0.0 size=N/A time=00:14:57.73 bitrate=N/A speed=19.6x    frame=21764 fps=469 q=-0.0 size=N/A time=00:15:07.74 bitrate=N/A speed=19.6x    frame=22040 fps=469 q=-0.0 size=N/A time=00:15:19.25 bitrate=N/A speed=19.6x    frame=22314 fps=470 q=-0.0 size=N/A time=00:15:30.67 bitrate=N/A speed=19.6x    frame=22501 fps=469 q=-0.0 size=N/A time=00:15:38.47 bitrate=N/A speed=19.6x    frame=22702 fps=468 q=-0.0 size=N/A time=00:15:46.86 bitrate=N/A speed=19.5x    frame=22958 fps=468 q=-0.0 size=N/A time=00:15:57.53 bitrate=N/A speed=19.5x    frame=23219 fps=469 q=-0.0 size=N/A time=00:16:08.42 bitrate=N/A speed=19.6x    frame=23413 fps=468 q=-0.0 size=N/A time=00:16:16.51 bitrate=N/A speed=19.5x    frame=23638 fps=468 q=-0.0 size=N/A time=00:16:25.90 bitrate=N/A speed=19.5x    frame=23894 fps=468 q=-0.0 size=N/A time=00:16:36.57 bitrate=N/A speed=19.5x    frame=24141 fps=468 q=-0.0 size=N/A time=00:16:46.88 bitrate=N/A speed=19.5x    frame=24395 fps=468 q=-0.0 size=N/A time=00:16:57.47 bitrate=N/A speed=19.5x    frame=24627 fps=468 q=-0.0 size=N/A time=00:17:07.15 bitrate=N/A speed=19.5x    frame=24877 fps=468 q=-0.0 size=N/A time=00:17:17.57 bitrate=N/A speed=19.5x    frame=25130 fps=468 q=-0.0 size=N/A time=00:17:28.13 bitrate=N/A speed=19.5x    frame=25376 fps=468 q=-0.0 size=N/A time=00:17:38.39 bitrate=N/A speed=19.5x    frame=25560 fps=467 q=-0.0 size=N/A time=00:17:46.06 bitrate=N/A speed=19.5x    frame=25756 fps=467 q=-0.0 size=N/A time=00:17:54.23 bitrate=N/A speed=19.5x    frame=26012 fps=467 q=-0.0 size=N/A time=00:18:04.91 bitrate=N/A speed=19.5x    frame=26216 fps=466 q=-0.0 size=N/A time=00:18:13.42 bitrate=N/A speed=19.4x    frame=26477 fps=467 q=-0.0 size=N/A time=00:18:24.31 bitrate=N/A speed=19.5x    frame=26705 fps=466 q=-0.0 size=N/A time=00:18:33.82 bitrate=N/A speed=19.5x    frame=26945 fps=466 q=-0.0 size=N/A time=00:18:43.83 bitrate=N/A speed=19.4x    frame=27168 fps=466 q=-0.0 size=N/A time=00:18:53.13 bitrate=N/A speed=19.4x    frame=27404 fps=466 q=-0.0 size=N/A time=00:19:02.97 bitrate=N/A speed=19.4x    frame=27670 fps=466 q=-0.0 size=N/A time=00:19:14.06 bitrate=N/A speed=19.5x    frame=27875 fps=466 q=-0.0 size=N/A time=00:19:22.61 bitrate=N/A speed=19.4x    frame=28099 fps=465 q=-0.0 size=N/A time=00:19:31.96 bitrate=N/A speed=19.4x    frame=28318 fps=465 q=-0.0 size=N/A time=00:19:41.09 bitrate=N/A speed=19.4x    frame=28570 fps=465 q=-0.0 size=N/A time=00:19:51.60 bitrate=N/A speed=19.4x    frame=28824 fps=466 q=-0.0 size=N/A time=00:20:02.20 bitrate=N/A speed=19.4x    frame=29088 fps=466 q=-0.0 size=N/A time=00:20:13.21 bitrate=N/A speed=19.4x    frame=29326 fps=466 q=-0.0 size=N/A time=00:20:23.13 bitrate=N/A speed=19.4x    frame=29510 fps=465 q=-0.0 size=N/A time=00:20:30.81 bitrate=N/A speed=19.4x    frame=29754 fps=465 q=-0.0 size=N/A time=00:20:40.98 bitrate=N/A speed=19.4x    frame=30003 fps=465 q=-0.0 size=N/A time=00:20:51.37 bitrate=N/A speed=19.4x    frame=30256 fps=465 q=-0.0 size=N/A time=00:21:01.92 bitrate=N/A speed=19.4x    frame=30520 fps=466 q=-0.0 size=N/A time=00:21:12.98 bitrate=N/A speed=19.4x    frame=30774 fps=466 q=-0.0 size=N/A time=00:21:23.53 bitrate=N/A speed=19.4x    frame=31026 fps=466 q=-0.0 size=N/A time=00:21:34.04 bitrate=N/A speed=19.4x    frame=31270 fps=466 q=-0.0 size=N/A time=00:21:44.21 bitrate=N/A speed=19.4x    frame=31540 fps=467 q=-0.0 size=N/A time=00:21:55.48 bitrate=N/A speed=19.5x    frame=31755 fps=466 q=-0.0 size=N/A time=00:22:04.44 bitrate=N/A speed=19.4x    frame=31958 fps=466 q=-0.0 size=N/A time=00:22:12.91 bitrate=N/A speed=19.4x    frame=32190 fps=466 q=-0.0 size=N/A time=00:22:22.59 bitrate=N/A speed=19.4x    frame=32397 fps=465 q=-0.0 size=N/A time=00:22:31.22 bitrate=N/A speed=19.4x    frame=32551 fps=464 q=-0.0 size=N/A time=00:22:37.64 bitrate=N/A speed=19.4x    frame=32732 fps=463 q=-0.0 size=N/A time=00:22:45.19 bitrate=N/A speed=19.3x    frame=32914 fps=462 q=-0.0 size=N/A time=00:22:52.78 bitrate=N/A speed=19.3x    frame=33107 fps=462 q=-0.0 size=N/A time=00:23:00.83 bitrate=N/A speed=19.3x    frame=33269 fps=461 q=-0.0 size=N/A time=00:23:07.59 bitrate=N/A speed=19.2x    frame=33445 fps=460 q=-0.0 size=N/A time=00:23:14.93 bitrate=N/A speed=19.2x    frame=33600 fps=459 q=-0.0 size=N/A time=00:23:21.40 bitrate=N/A speed=19.1x    frame=33801 fps=458 q=-0.0 size=N/A time=00:23:29.78 bitrate=N/A speed=19.1x    frame=34069 fps=459 q=-0.0 size=N/A time=00:23:40.96 bitrate=N/A speed=19.1x    frame=34302 fps=459 q=-0.0 size=N/A time=00:23:50.67 bitrate=N/A speed=19.1x    frame=34535 fps=459 q=-0.0 size=N/A time=00:24:00.39 bitrate=N/A speed=19.1x    [Parsed_psnr_10 @ 0000026d8b4e5e00] PSNR y:47.128684 u:49.270650 v:48.696987 average:47.661244 min:37.202407 max:inf
[out#0/null @ 0000026dfe004e80] video:14851KiB audio:270332KiB subtitle:0KiB other streams:0KiB global headers:0KiB muxing overhead: unknown
frame=34563 fps=459 q=-0.0 Lsize=N/A time=00:24:01.56 bitrate=N/A speed=19.1x    
